
<svg width="12" height="14" viewBox="0 0 12 14" fill="none" xmlns="http://www.w3.org/2000/svg">
<path d="M0 7C0 4.86719 1.125 2.89844 3 1.82031C4.85156 0.742188 7.125 0.742188 9 1.82031C10.8516 2.89844 12 4.86719 12 7C12 9.15625 10.8516 11.125 9 12.2031C7.125 13.2812 4.85156 13.2812 3 12.2031C1.125 11.125 0 9.15625 0 7ZM4.40625 4.46875C4.21875 4.5625 4.125 4.75 4.125 4.9375V9.0625C4.125 9.27344 4.21875 9.46094 4.40625 9.55469C4.57031 9.67188 4.80469 9.64844 4.96875 9.55469L8.34375 7.49219C8.50781 7.375 8.625 7.21094 8.625 7C8.625 6.8125 8.50781 6.625 8.34375 6.53125L4.96875 4.46875C4.80469 4.35156 4.57031 4.35156 4.40625 4.44531V4.46875Z" fill="#FF7300"/>
</svg>
