
<svg width="84" height="84" viewBox="0 0 84 84" fill="none" xmlns="http://www.w3.org/2000/svg">
<path d="M4.165 0.875H0.875V4.165H4.165V0.875Z" fill="black"/>
<path d="M7.455 0.875H4.165V4.165H7.455V0.875Z" fill="black"/>
<path d="M10.745 0.875H7.455V4.165H10.745V0.875Z" fill="black"/>
<path d="M14.035 0.875H10.745V4.165H14.035V0.875Z" fill="black"/>
<path d="M17.325 0.875H14.035V4.165H17.325V0.875Z" fill="black"/>
<path d="M20.615 0.875H17.325V4.165H20.615V0.875Z" fill="black"/>
<path d="M23.905 0.875H20.615V4.165H23.905V0.875Z" fill="black"/>
<path d="M30.485 0.875H27.195V4.165H30.485V0.875Z" fill="black"/>
<path d="M43.645 0.875H40.355V4.165H43.645V0.875Z" fill="black"/>
<path d="M46.935 0.875H43.645V4.165H46.935V0.875Z" fill="black"/>
<path d="M50.225 0.875H46.935V4.165H50.225V0.875Z" fill="black"/>
<path d="M53.515 0.875H50.225V4.165H53.515V0.875Z" fill="black"/>
<path d="M56.805 0.875H53.515V4.165H56.805V0.875Z" fill="black"/>
<path d="M63.385 0.875H60.095V4.165H63.385V0.875Z" fill="black"/>
<path d="M66.675 0.875H63.385V4.165H66.675V0.875Z" fill="black"/>
<path d="M69.965 0.875H66.675V4.165H69.965V0.875Z" fill="black"/>
<path d="M73.255 0.875H69.965V4.165H73.255V0.875Z" fill="black"/>
<path d="M76.545 0.875H73.255V4.165H76.545V0.875Z" fill="black"/>
<path d="M79.835 0.875H76.545V4.165H79.835V0.875Z" fill="black"/>
<path d="M83.125 0.875H79.835V4.165H83.125V0.875Z" fill="black"/>
<path d="M4.165 4.165H0.875V7.455H4.165V4.165Z" fill="black"/>
<path d="M23.905 4.165H20.615L20.615 7.455H23.905V4.165Z" fill="black"/>
<path d="M37.065 4.165H33.775V7.455H37.065V4.165Z" fill="black"/>
<path d="M40.355 4.165H37.065V7.455H40.355V4.165Z" fill="black"/>
<path d="M46.935 4.165H43.645V7.455H46.935V4.165Z" fill="black"/>
<path d="M63.385 4.165H60.095V7.455H63.385V4.165Z" fill="black"/>
<path d="M83.125 4.165H79.835V7.455H83.125V4.165Z" fill="black"/>
<path d="M4.165 7.455H0.875V10.745H4.165V7.455Z" fill="black"/>
<path d="M10.745 7.455H7.455V10.745H10.745V7.455Z" fill="black"/>
<path d="M14.035 7.455H10.745V10.745H14.035V7.455Z" fill="black"/>
<path d="M17.325 7.455H14.035V10.745H17.325V7.455Z" fill="black"/>
<path d="M23.905 7.455H20.615V10.745H23.905V7.455Z" fill="black"/>
<path d="M30.485 7.455H27.195V10.745H30.485V7.455Z" fill="black"/>
<path d="M33.775 7.455H30.485V10.745H33.775V7.455Z" fill="black"/>
<path d="M40.355 7.455H37.065V10.745H40.355V7.455Z" fill="black"/>
<path d="M46.935 7.455H43.645V10.745H46.935V7.455Z" fill="black"/>
<path d="M53.515 7.455H50.225V10.745H53.515V7.455Z" fill="black"/>
<path d="M63.385 7.455H60.095V10.745H63.385V7.455Z" fill="black"/>
<path d="M69.965 7.455H66.675V10.745H69.965V7.455Z" fill="black"/>
<path d="M73.255 7.455H69.965V10.745H73.255V7.455Z" fill="black"/>
<path d="M76.545 7.455H73.255V10.745H76.545V7.455Z" fill="black"/>
<path d="M83.125 7.455H79.835V10.745H83.125V7.455Z" fill="black"/>
<path d="M4.165 10.745H0.875V14.035H4.165V10.745Z" fill="black"/>
<path d="M10.745 10.745H7.455V14.035H10.745V10.745Z" fill="black"/>
<path d="M14.035 10.745H10.745V14.035H14.035V10.745Z" fill="black"/>
<path d="M17.325 10.745H14.035V14.035H17.325V10.745Z" fill="black"/>
<path d="M23.905 10.745H20.615V14.035H23.905V10.745Z" fill="black"/>
<path d="M30.485 10.745H27.195V14.035H30.485V10.745Z" fill="black"/>
<path d="M33.775 10.745H30.485V14.035H33.775V10.745Z" fill="black"/>
<path d="M43.645 10.745H40.355V14.035H43.645V10.745Z" fill="black"/>
<path d="M46.935 10.745H43.645V14.035H46.935V10.745Z" fill="black"/>
<path d="M63.385 10.745H60.095V14.035H63.385V10.745Z" fill="black"/>
<path d="M69.965 10.745H66.675V14.035H69.965V10.745Z" fill="black"/>
<path d="M73.255 10.745H69.965V14.035H73.255V10.745Z" fill="black"/>
<path d="M76.545 10.745H73.255V14.035H76.545V10.745Z" fill="black"/>
<path d="M83.125 10.745H79.835V14.035H83.125V10.745Z" fill="black"/>
<path d="M4.165 14.035H0.875V17.325H4.165V14.035Z" fill="black"/>
<path d="M10.745 14.035H7.455V17.325H10.745V14.035Z" fill="black"/>
<path d="M14.035 14.035H10.745V17.325H14.035V14.035Z" fill="black"/>
<path d="M17.325 14.035H14.035V17.325H17.325V14.035Z" fill="black"/>
<path d="M23.905 14.035H20.615V17.325H23.905V14.035Z" fill="black"/>
<path d="M30.485 14.035H27.195V17.325H30.485V14.035Z" fill="black"/>
<path d="M33.775 14.035H30.485V17.325H33.775V14.035Z" fill="black"/>
<path d="M43.645 14.035H40.355V17.325H43.645V14.035Z" fill="black"/>
<path d="M53.515 14.035H50.225V17.325H53.515V14.035Z" fill="black"/>
<path d="M56.805 14.035H53.515V17.325H56.805V14.035Z" fill="black"/>
<path d="M63.385 14.035H60.095V17.325H63.385V14.035Z" fill="black"/>
<path d="M69.965 14.035H66.675V17.325H69.965V14.035Z" fill="black"/>
<path d="M73.255 14.035H69.965V17.325H73.255V14.035Z" fill="black"/>
<path d="M76.545 14.035H73.255V17.325H76.545V14.035Z" fill="black"/>
<path d="M83.125 14.035H79.835V17.325H83.125V14.035Z" fill="black"/>
<path d="M4.165 17.325H0.875V20.615H4.165V17.325Z" fill="black"/>
<path d="M23.905 17.325H20.615V20.615H23.905V17.325Z" fill="black"/>
<path d="M30.485 17.325H27.195V20.615H30.485V17.325Z" fill="black"/>
<path d="M33.775 17.325H30.485V20.615H33.775V17.325Z" fill="black"/>
<path d="M43.645 17.325H40.355V20.615H43.645V17.325Z" fill="black"/>
<path d="M46.935 17.325H43.645V20.615H46.935V17.325Z" fill="black"/>
<path d="M50.225 17.325H46.935V20.615H50.225L50.225 17.325Z" fill="black"/>
<path d="M56.805 17.325H53.515V20.615H56.805V17.325Z" fill="black"/>
<path d="M63.385 17.325H60.095V20.615H63.385V17.325Z" fill="black"/>
<path d="M83.125 17.325H79.835V20.615H83.125V17.325Z" fill="black"/>
<path d="M4.165 20.615H0.875V23.905H4.165V20.615Z" fill="black"/>
<path d="M7.455 20.615L4.165 20.615V23.905H7.455V20.615Z" fill="black"/>
<path d="M10.745 20.615H7.455V23.905H10.745V20.615Z" fill="black"/>
<path d="M14.035 20.615H10.745V23.905H14.035V20.615Z" fill="black"/>
<path d="M17.325 20.615H14.035V23.905H17.325V20.615Z" fill="black"/>
<path d="M20.615 20.615L17.325 20.615V23.905H20.615L20.615 20.615Z" fill="black"/>
<path d="M23.905 20.615H20.615L20.615 23.905H23.905V20.615Z" fill="black"/>
<path d="M30.485 20.615H27.195V23.905H30.485V20.615Z" fill="black"/>
<path d="M37.065 20.615L33.775 20.615V23.905H37.065V20.615Z" fill="black"/>
<path d="M43.645 20.615H40.355V23.905H43.645V20.615Z" fill="black"/>
<path d="M50.225 20.615H46.935V23.905H50.225V20.615Z" fill="black"/>
<path d="M56.805 20.615H53.515V23.905H56.805V20.615Z" fill="black"/>
<path d="M63.385 20.615H60.095V23.905H63.385V20.615Z" fill="black"/>
<path d="M66.675 20.615L63.385 20.615V23.905H66.675V20.615Z" fill="black"/>
<path d="M69.965 20.615H66.675V23.905H69.965V20.615Z" fill="black"/>
<path d="M73.255 20.615H69.965V23.905H73.255V20.615Z" fill="black"/>
<path d="M76.545 20.615H73.255V23.905H76.545V20.615Z" fill="black"/>
<path d="M79.835 20.615L76.545 20.615V23.905H79.835V20.615Z" fill="black"/>
<path d="M83.125 20.615H79.835V23.905H83.125V20.615Z" fill="black"/>
<path d="M40.355 23.905H37.065V27.195H40.355V23.905Z" fill="black"/>
<path d="M43.645 23.905H40.355V27.195H43.645V23.905Z" fill="black"/>
<path d="M46.935 23.905H43.645V27.195H46.935V23.905Z" fill="black"/>
<path d="M53.515 23.905H50.225L50.225 27.195H53.515V23.905Z" fill="black"/>
<path d="M10.745 27.195H7.455V30.485H10.745V27.195Z" fill="black"/>
<path d="M14.035 27.195H10.745V30.485H14.035V27.195Z" fill="black"/>
<path d="M17.325 27.195H14.035V30.485H17.325V27.195Z" fill="black"/>
<path d="M20.615 27.195H17.325V30.485H20.615V27.195Z" fill="black"/>
<path d="M23.905 27.195H20.615V30.485H23.905V27.195Z" fill="black"/>
<path d="M27.195 27.195H23.905V30.485H27.195V27.195Z" fill="black"/>
<path d="M33.775 27.195H30.485V30.485H33.775V27.195Z" fill="black"/>
<path d="M37.065 27.195H33.775V30.485H37.065V27.195Z" fill="black"/>
<path d="M40.355 27.195H37.065V30.485H40.355V27.195Z" fill="black"/>
<path d="M50.225 27.195H46.935V30.485H50.225L50.225 27.195Z" fill="black"/>
<path d="M53.515 27.195H50.225L50.225 30.485H53.515V27.195Z" fill="black"/>
<path d="M60.095 27.195H56.805V30.485H60.095V27.195Z" fill="black"/>
<path d="M66.675 27.195H63.385V30.485H66.675V27.195Z" fill="black"/>
<path d="M69.965 27.195H66.675V30.485H69.965V27.195Z" fill="black"/>
<path d="M73.255 27.195H69.965V30.485H73.255V27.195Z" fill="black"/>
<path d="M76.545 27.195H73.255V30.485H76.545V27.195Z" fill="black"/>
<path d="M83.125 27.195H79.835V30.485H83.125V27.195Z" fill="black"/>
<path d="M7.455 30.485H4.165V33.775H7.455V30.485Z" fill="black"/>
<path d="M14.035 30.485H10.745V33.775H14.035V30.485Z" fill="black"/>
<path d="M40.355 30.485H37.065V33.775H40.355V30.485Z" fill="black"/>
<path d="M46.935 30.485H43.645V33.775H46.935V30.485Z" fill="black"/>
<path d="M53.515 30.485H50.225L50.225 33.775H53.515V30.485Z" fill="black"/>
<path d="M63.385 30.485H60.095V33.775H63.385V30.485Z" fill="black"/>
<path d="M66.675 30.485H63.385V33.775H66.675V30.485Z" fill="black"/>
<path d="M69.965 30.485H66.675V33.775H69.965V30.485Z" fill="black"/>
<path d="M73.255 30.485H69.965V33.775H73.255V30.485Z" fill="black"/>
<path d="M76.545 30.485H73.255V33.775H76.545V30.485Z" fill="black"/>
<path d="M83.125 30.485H79.835V33.775H83.125V30.485Z" fill="black"/>
<path d="M4.165 33.775H0.875V37.065H4.165V33.775Z" fill="black"/>
<path d="M10.745 33.775H7.455V37.065H10.745V33.775Z" fill="black"/>
<path d="M14.035 33.775H10.745V37.065H14.035V33.775Z" fill="black"/>
<path d="M20.615 33.775H17.325V37.065H20.615V33.775Z" fill="black"/>
<path d="M23.905 33.775H20.615V37.065H23.905V33.775Z" fill="black"/>
<path d="M30.485 33.775H27.195V37.065H30.485V33.775Z" fill="black"/>
<path d="M33.775 33.775H30.485V37.065H33.775V33.775Z" fill="black"/>
<path d="M40.355 33.775H37.065V37.065H40.355V33.775Z" fill="black"/>
<path d="M60.095 33.775H56.805V37.065H60.095V33.775Z" fill="black"/>
<path d="M63.385 33.775H60.095V37.065H63.385V33.775Z" fill="black"/>
<path d="M66.675 33.775H63.385V37.065H66.675V33.775Z" fill="black"/>
<path d="M76.545 33.775H73.255V37.065H76.545V33.775Z" fill="black"/>
<path d="M79.835 33.775H76.545V37.065H79.835V33.775Z" fill="black"/>
<path d="M83.125 33.775H79.835V37.065H83.125V33.775Z" fill="black"/>
<path d="M10.745 37.065H7.455V40.355H10.745V37.065Z" fill="black"/>
<path d="M17.325 37.065H14.035V40.355H17.325V37.065Z" fill="black"/>
<path d="M27.195 37.065H23.905V40.355H27.195V37.065Z" fill="black"/>
<path d="M30.485 37.065H27.195V40.355H30.485V37.065Z" fill="black"/>
<path d="M40.355 37.065H37.065V40.355H40.355V37.065Z" fill="black"/>
<path d="M50.225 37.065H46.935V40.355H50.225V37.065Z" fill="black"/>
<path d="M53.515 37.065H50.225V40.355H53.515V37.065Z" fill="black"/>
<path d="M56.805 37.065H53.515V40.355H56.805V37.065Z" fill="black"/>
<path d="M76.545 37.065H73.255V40.355H76.545V37.065Z" fill="black"/>
<path d="M79.835 37.065H76.545V40.355H79.835V37.065Z" fill="black"/>
<path d="M83.125 37.065H79.835V40.355H83.125V37.065Z" fill="black"/>
<path d="M10.745 40.355H7.455V43.645H10.745V40.355Z" fill="black"/>
<path d="M17.325 40.355H14.035V43.645H17.325V40.355Z" fill="black"/>
<path d="M20.615 40.355H17.325V43.645H20.615V40.355Z" fill="black"/>
<path d="M23.905 40.355H20.615V43.645H23.905V40.355Z" fill="black"/>
<path d="M30.485 40.355H27.195V43.645H30.485V40.355Z" fill="black"/>
<path d="M33.775 40.355H30.485V43.645H33.775V40.355Z" fill="black"/>
<path d="M40.355 40.355H37.065V43.645H40.355V40.355Z" fill="black"/>
<path d="M43.645 40.355H40.355V43.645H43.645V40.355Z" fill="black"/>
<path d="M50.225 40.355H46.935V43.645H50.225V40.355Z" fill="black"/>
<path d="M60.095 40.355H56.805V43.645H60.095V40.355Z" fill="black"/>
<path d="M66.675 40.355H63.385V43.645H66.675V40.355Z" fill="black"/>
<path d="M69.965 40.355H66.675V43.645H69.965V40.355Z" fill="black"/>
<path d="M76.545 40.355H73.255V43.645H76.545V40.355Z" fill="black"/>
<path d="M4.165 43.645H0.875V46.935H4.165V43.645Z" fill="black"/>
<path d="M7.455 43.645H4.165V46.935H7.455V43.645Z" fill="black"/>
<path d="M10.745 43.645H7.455V46.935H10.745V43.645Z" fill="black"/>
<path d="M33.775 43.645H30.485V46.935H33.775V43.645Z" fill="black"/>
<path d="M37.065 43.645H33.775V46.935H37.065V43.645Z" fill="black"/>
<path d="M40.355 43.645H37.065V46.935H40.355V43.645Z" fill="black"/>
<path d="M60.095 43.645H56.805V46.935H60.095V43.645Z" fill="black"/>
<path d="M63.385 43.645H60.095V46.935H63.385V43.645Z" fill="black"/>
<path d="M66.675 43.645H63.385V46.935H66.675V43.645Z" fill="black"/>
<path d="M4.165 46.935H0.875V50.225H4.165V46.935Z" fill="black"/>
<path d="M7.455 46.935H4.165V50.225H7.455V46.935Z" fill="black"/>
<path d="M14.035 46.935H10.745V50.225H14.035V46.935Z" fill="black"/>
<path d="M23.905 46.935H20.615V50.225H23.905V46.935Z" fill="black"/>
<path d="M27.195 46.935H23.905V50.225H27.195V46.935Z" fill="black"/>
<path d="M33.775 46.935H30.485V50.225H33.775V46.935Z" fill="black"/>
<path d="M37.065 46.935H33.775V50.225H37.065V46.935Z" fill="black"/>
<path d="M43.645 46.935H40.355V50.225H43.645V46.935Z" fill="black"/>
<path d="M53.515 46.935H50.225V50.225H53.515V46.935Z" fill="black"/>
<path d="M60.095 46.935H56.805V50.225H60.095V46.935Z" fill="black"/>
<path d="M63.385 46.935H60.095V50.225H63.385V46.935Z" fill="black"/>
<path d="M69.965 46.935H66.675V50.225H69.965V46.935Z" fill="black"/>
<path d="M79.835 46.935H76.545V50.225H79.835V46.935Z" fill="black"/>
<path d="M4.165 50.225H0.875V53.515H4.165V50.225Z" fill="black"/>
<path d="M7.455 50.225H4.165V53.515H7.455V50.225Z" fill="black"/>
<path d="M10.745 50.225H7.455V53.515H10.745V50.225Z" fill="black"/>
<path d="M14.035 50.225H10.745V53.515H14.035V50.225Z" fill="black"/>
<path d="M17.325 50.225L14.035 50.225V53.515H17.325V50.225Z" fill="black"/>
<path d="M33.775 50.225H30.485V53.515H33.775V50.225Z" fill="black"/>
<path d="M37.065 50.225H33.775V53.515H37.065V50.225Z" fill="black"/>
<path d="M40.355 50.225H37.065V53.515H40.355V50.225Z" fill="black"/>
<path d="M43.645 50.225H40.355V53.515H43.645V50.225Z" fill="black"/>
<path d="M46.935 50.225L43.645 50.225V53.515H46.935V50.225Z" fill="black"/>
<path d="M60.095 50.225H56.805V53.515H60.095V50.225Z" fill="black"/>
<path d="M63.385 50.225H60.095V53.515H63.385V50.225Z" fill="black"/>
<path d="M66.675 50.225H63.385V53.515H66.675V50.225Z" fill="black"/>
<path d="M69.965 50.225H66.675V53.515H69.965V50.225Z" fill="black"/>
<path d="M79.835 50.225H76.545V53.515H79.835V50.225Z" fill="black"/>
<path d="M7.455 53.515H4.165V56.805H7.455V53.515Z" fill="black"/>
<path d="M17.325 53.515H14.035V56.805H17.325V53.515Z" fill="black"/>
<path d="M23.905 53.515H20.615V56.805H23.905V53.515Z" fill="black"/>
<path d="M27.195 53.515H23.905V56.805H27.195V53.515Z" fill="black"/>
<path d="M30.485 53.515H27.195V56.805H30.485V53.515Z" fill="black"/>
<path d="M37.065 53.515H33.775V56.805H37.065V53.515Z" fill="black"/>
<path d="M46.935 53.515H43.645V56.805H46.935V53.515Z" fill="black"/>
<path d="M53.515 53.515H50.225V56.805H53.515V53.515Z" fill="black"/>
<path d="M56.805 53.515H53.515V56.805H56.805V53.515Z" fill="black"/>
<path d="M60.095 53.515H56.805V56.805H60.095V53.515Z" fill="black"/>
<path d="M63.385 53.515H60.095V56.805H63.385V53.515Z" fill="black"/>
<path d="M66.675 53.515H63.385V56.805H66.675V53.515Z" fill="black"/>
<path d="M69.965 53.515H66.675V56.805H69.965V53.515Z" fill="black"/>
<path d="M76.545 53.515H73.255V56.805H76.545V53.515Z" fill="black"/>
<path d="M79.835 53.515H76.545V56.805H79.835V53.515Z" fill="black"/>
<path d="M37.065 56.805H33.775V60.095H37.065V56.805Z" fill="black"/>
<path d="M43.645 56.805H40.355V60.095H43.645V56.805Z" fill="black"/>
<path d="M53.515 56.805H50.225V60.095H53.515V56.805Z" fill="black"/>
<path d="M56.805 56.805H53.515V60.095H56.805V56.805Z" fill="black"/>
<path d="M69.965 56.805H66.675V60.095H69.965V56.805Z" fill="black"/>
<path d="M73.255 56.805H69.965V60.095H73.255V56.805Z" fill="black"/>
<path d="M79.835 56.805H76.545V60.095H79.835V56.805Z" fill="black"/>
<path d="M83.125 56.805H79.835V60.095H83.125V56.805Z" fill="black"/>
<path d="M4.165 60.095H0.875V63.385H4.165V60.095Z" fill="black"/>
<path d="M7.455 60.095H4.165V63.385H7.455V60.095Z" fill="black"/>
<path d="M10.745 60.095H7.455V63.385H10.745V60.095Z" fill="black"/>
<path d="M14.035 60.095H10.745V63.385H14.035V60.095Z" fill="black"/>
<path d="M17.325 60.095H14.035V63.385H17.325V60.095Z" fill="black"/>
<path d="M20.615 60.095H17.325V63.385H20.615V60.095Z" fill="black"/>
<path d="M23.905 60.095H20.615V63.385H23.905V60.095Z" fill="black"/>
<path d="M30.485 60.095H27.195V63.385H30.485V60.095Z" fill="black"/>
<path d="M43.645 60.095H40.355V63.385H43.645V60.095Z" fill="black"/>
<path d="M50.225 60.095H46.935V63.385H50.225L50.225 60.095Z" fill="black"/>
<path d="M56.805 60.095H53.515V63.385H56.805V60.095Z" fill="black"/>
<path d="M63.385 60.095H60.095V63.385H63.385V60.095Z" fill="black"/>
<path d="M69.965 60.095H66.675V63.385H69.965V60.095Z" fill="black"/>
<path d="M73.255 60.095H69.965V63.385H73.255V60.095Z" fill="black"/>
<path d="M4.165 63.385H0.875V66.675H4.165V63.385Z" fill="black"/>
<path d="M23.905 63.385H20.615L20.615 66.675H23.905V63.385Z" fill="black"/>
<path d="M30.485 63.385H27.195V66.675H30.485V63.385Z" fill="black"/>
<path d="M37.065 63.385H33.775V66.675H37.065V63.385Z" fill="black"/>
<path d="M46.935 63.385H43.645V66.675H46.935V63.385Z" fill="black"/>
<path d="M50.225 63.385H46.935V66.675H50.225V63.385Z" fill="black"/>
<path d="M53.515 63.385H50.225V66.675H53.515V63.385Z" fill="black"/>
<path d="M56.805 63.385H53.515V66.675H56.805V63.385Z" fill="black"/>
<path d="M69.965 63.385H66.675V66.675H69.965V63.385Z" fill="black"/>
<path d="M76.545 63.385H73.255V66.675H76.545V63.385Z" fill="black"/>
<path d="M4.165 66.675H0.875V69.965H4.165V66.675Z" fill="black"/>
<path d="M10.745 66.675H7.455V69.965H10.745V66.675Z" fill="black"/>
<path d="M14.035 66.675H10.745V69.965H14.035V66.675Z" fill="black"/>
<path d="M17.325 66.675H14.035V69.965H17.325V66.675Z" fill="black"/>
<path d="M23.905 66.675H20.615V69.965H23.905V66.675Z" fill="black"/>
<path d="M30.485 66.675H27.195V69.965H30.485V66.675Z" fill="black"/>
<path d="M43.645 66.675H40.355V69.965H43.645V66.675Z" fill="black"/>
<path d="M56.805 66.675H53.515V69.965H56.805V66.675Z" fill="black"/>
<path d="M60.095 66.675H56.805V69.965H60.095V66.675Z" fill="black"/>
<path d="M63.385 66.675H60.095V69.965H63.385V66.675Z" fill="black"/>
<path d="M66.675 66.675H63.385V69.965H66.675V66.675Z" fill="black"/>
<path d="M69.965 66.675H66.675V69.965H69.965V66.675Z" fill="black"/>
<path d="M73.255 66.675H69.965V69.965H73.255V66.675Z" fill="black"/>
<path d="M79.835 66.675H76.545V69.965H79.835V66.675Z" fill="black"/>
<path d="M4.165 69.965H0.875V73.255H4.165V69.965Z" fill="black"/>
<path d="M10.745 69.965H7.455V73.255H10.745V69.965Z" fill="black"/>
<path d="M14.035 69.965H10.745V73.255H14.035V69.965Z" fill="black"/>
<path d="M17.325 69.965H14.035V73.255H17.325V69.965Z" fill="black"/>
<path d="M23.905 69.965H20.615V73.255H23.905V69.965Z" fill="black"/>
<path d="M30.485 69.965H27.195V73.255H30.485V69.965Z" fill="black"/>
<path d="M33.775 69.965H30.485V73.255H33.775V69.965Z" fill="black"/>
<path d="M37.065 69.965H33.775V73.255H37.065V69.965Z" fill="black"/>
<path d="M43.645 69.965H40.355V73.255H43.645V69.965Z" fill="black"/>
<path d="M46.935 69.965H43.645V73.255H46.935V69.965Z" fill="black"/>
<path d="M56.805 69.965H53.515V73.255H56.805V69.965Z" fill="black"/>
<path d="M73.255 69.965H69.965V73.255H73.255V69.965Z" fill="black"/>
<path d="M76.545 69.965H73.255V73.255H76.545V69.965Z" fill="black"/>
<path d="M4.165 73.255H0.875V76.545H4.165V73.255Z" fill="black"/>
<path d="M10.745 73.255H7.455V76.545H10.745V73.255Z" fill="black"/>
<path d="M14.035 73.255H10.745V76.545H14.035V73.255Z" fill="black"/>
<path d="M17.325 73.255H14.035V76.545H17.325V73.255Z" fill="black"/>
<path d="M23.905 73.255H20.615V76.545H23.905V73.255Z" fill="black"/>
<path d="M30.485 73.255H27.195V76.545H30.485V73.255Z" fill="black"/>
<path d="M33.775 73.255H30.485V76.545H33.775V73.255Z" fill="black"/>
<path d="M43.645 73.255H40.355V76.545H43.645V73.255Z" fill="black"/>
<path d="M50.225 73.255H46.935V76.545H50.225V73.255Z" fill="black"/>
<path d="M56.805 73.255H53.515V76.545H56.805V73.255Z" fill="black"/>
<path d="M60.095 73.255H56.805V76.545H60.095V73.255Z" fill="black"/>
<path d="M63.385 73.255H60.095V76.545H63.385V73.255Z" fill="black"/>
<path d="M69.965 73.255H66.675V76.545H69.965V73.255Z" fill="black"/>
<path d="M76.545 73.255H73.255V76.545H76.545V73.255Z" fill="black"/>
<path d="M83.125 73.255H79.835V76.545H83.125V73.255Z" fill="black"/>
<path d="M4.165 76.545H0.875V79.835H4.165V76.545Z" fill="black"/>
<path d="M23.905 76.545H20.615V79.835H23.905V76.545Z" fill="black"/>
<path d="M37.065 76.545H33.775V79.835H37.065V76.545Z" fill="black"/>
<path d="M43.645 76.545H40.355V79.835H43.645V76.545Z" fill="black"/>
<path d="M50.225 76.545H46.935V79.835H50.225V76.545Z" fill="black"/>
<path d="M53.515 76.545H50.225V79.835H53.515V76.545Z" fill="black"/>
<path d="M56.805 76.545H53.515V79.835H56.805V76.545Z" fill="black"/>
<path d="M63.385 76.545H60.095V79.835H63.385V76.545Z" fill="black"/>
<path d="M66.675 76.545H63.385V79.835H66.675V76.545Z" fill="black"/>
<path d="M69.965 76.545H66.675V79.835H69.965V76.545Z" fill="black"/>
<path d="M83.125 76.545H79.835V79.835H83.125V76.545Z" fill="black"/>
<path d="M4.165 79.835H0.875V83.125H4.165V79.835Z" fill="black"/>
<path d="M7.455 79.835H4.165V83.125H7.455V79.835Z" fill="black"/>
<path d="M10.745 79.835H7.455V83.125H10.745V79.835Z" fill="black"/>
<path d="M14.035 79.835H10.745V83.125H14.035V79.835Z" fill="black"/>
<path d="M17.325 79.835H14.035V83.125H17.325V79.835Z" fill="black"/>
<path d="M20.615 79.835H17.325V83.125H20.615L20.615 79.835Z" fill="black"/>
<path d="M23.905 79.835H20.615L20.615 83.125H23.905V79.835Z" fill="black"/>
<path d="M37.065 79.835H33.775V83.125H37.065V79.835Z" fill="black"/>
<path d="M40.355 79.835H37.065V83.125H40.355V79.835Z" fill="black"/>
<path d="M43.645 79.835H40.355V83.125H43.645V79.835Z" fill="black"/>
<path d="M50.225 79.835H46.935V83.125H50.225V79.835Z" fill="black"/>
<path d="M63.385 79.835H60.095V83.125H63.385V79.835Z" fill="black"/>
<path d="M66.675 79.835H63.385V83.125H66.675V79.835Z" fill="black"/>
<path d="M73.255 79.835H69.965V83.125H73.255V79.835Z" fill="black"/>
<path d="M76.545 79.835H73.255V83.125H76.545V79.835Z" fill="black"/>
<path d="M79.835 79.835H76.545V83.125H79.835V79.835Z" fill="black"/>
<path d="M83.125 79.835H79.835V83.125H83.125V79.835Z" fill="black"/>
</svg>
