
<svg width="12" height="12" viewBox="0 0 13 13" fill="none" xmlns="http://www.w3.org/2000/svg">
<path d="M10.25 4.875C10.25 5.95312 9.89844 6.96094 9.3125 7.75781L12.2656 10.7344C12.5703 11.0156 12.5703 11.5078 12.2656 11.7891C11.9844 12.0938 11.4922 12.0938 11.2109 11.7891L8.23438 8.8125C7.4375 9.42188 6.42969 9.75 5.375 9.75C2.67969 9.75 0.5 7.57031 0.5 4.875C0.5 2.20312 2.67969 0 5.375 0C8.04688 0 10.25 2.20312 10.25 4.875ZM5.375 8.25C6.57031 8.25 7.67188 7.61719 8.28125 6.5625C8.89062 5.53125 8.89062 4.24219 8.28125 3.1875C7.67188 2.15625 6.57031 1.5 5.375 1.5C4.15625 1.5 3.05469 2.15625 2.44531 3.1875C1.83594 4.24219 1.83594 5.53125 2.44531 6.5625C3.05469 7.61719 4.15625 8.25 5.375 8.25Z" fill="#000111"/>
</svg>
