
<svg width="13" height="13" viewBox="0 0 13 13" fill="none" xmlns="http://www.w3.org/2000/svg">
<path opacity="0.8" d="M6.72656 0C6.96094 0 7.14844 0.140625 7.24219 0.328125L8.85938 3.63281L12.4453 4.17188C12.6562 4.19531 12.8203 4.33594 12.8906 4.54688C12.9609 4.75781 12.9141 4.96875 12.75 5.13281L10.1484 7.71094L10.7578 11.3438C10.8047 11.5547 10.7109 11.7891 10.5469 11.9062C10.3594 12.0234 10.125 12.0469 9.9375 11.9531L6.72656 10.2188L3.53906 11.9531C3.32812 12.0469 3.11719 12.0234 2.92969 11.9062C2.76562 11.7656 2.67188 11.5547 2.71875 11.3438L3.32812 7.71094L0.726562 5.13281C0.5625 4.96875 0.515625 4.75781 0.585938 4.54688C0.65625 4.35938 0.820312 4.19531 1.03125 4.17188L4.61719 3.63281L6.23438 0.328125C6.32812 0.140625 6.51562 0 6.72656 0ZM6.72656 1.85156L5.50781 4.40625C5.41406 4.57031 5.27344 4.6875 5.08594 4.71094L2.32031 5.10938L4.3125 7.10156C4.45312 7.24219 4.52344 7.42969 4.47656 7.59375L4.00781 10.4062L6.46875 9.09375C6.63281 9 6.84375 9 7.00781 9.09375L9.46875 10.4062L9 7.61719C8.95312 7.42969 9.02344 7.24219 9.16406 7.125L11.1562 5.10938L8.39062 4.71094C8.20312 4.6875 8.0625 4.57031 7.96875 4.40625L6.72656 1.85156Z" fill="white"/>
</svg>
