
<svg width="63" height="26" viewBox="0 0 63 26" fill="none" xmlns="http://www.w3.org/2000/svg">
<path d="M15.6227 0C15.7375 1.50946 15.2636 3.0046 14.3017 4.16769C13.8411 4.74485 13.2565 5.20915 12.5919 5.52567C11.9273 5.84207 11.2 6.00255 10.465 5.99502C10.4181 5.2691 10.5136 4.54095 10.7463 3.8524C10.9789 3.16373 11.344 2.52797 11.8206 1.98152C12.7957 0.86297 14.1531 0.155423 15.6227 0Z" fill="white"/>
<path d="M18.3037 10.9862C17.8152 11.853 17.5524 12.8301 17.5397 13.8268C17.5409 14.9477 17.8697 16.0435 18.4851 16.9775C19.1003 17.9117 19.975 18.6425 21 19.0792C20.597 20.398 19.9896 21.6441 19.2001 22.7716C18.14 24.369 17.0284 25.9297 15.2643 25.9585C14.4252 25.978 13.8588 25.735 13.2687 25.4818C12.6531 25.2177 12.0116 24.9424 11.0078 24.9424C9.94311 24.9424 9.2729 25.2264 8.62644 25.5005C8.06791 25.7374 7.52713 25.9666 6.76495 25.9984C5.08482 26.061 3.80072 24.2934 2.70203 22.7111C0.506102 19.4794 -1.20385 13.6037 1.08864 9.60578C1.61778 8.64783 2.38437 7.84432 3.31346 7.27357C4.24267 6.70269 5.30267 6.38408 6.39047 6.3488C7.34344 6.32906 8.25784 6.69899 9.05945 7.02341C9.67248 7.27147 10.2196 7.49276 10.6677 7.49276C11.0615 7.49276 11.5935 7.2801 12.2134 7.03229C13.1897 6.642 14.3846 6.16426 15.6022 6.29304C16.5353 6.3224 17.4487 6.57058 18.2699 7.01773C19.0911 7.46501 19.7976 8.09891 20.3331 8.86925C19.4902 9.39115 18.7921 10.1194 18.3037 10.9862Z" fill="white"/>
<path fill-rule="evenodd" clip-rule="evenodd" d="M41.4289 1.23347C41.157 1.52765 41 1.97716 41 2.56553V23.4337C41 24.0221 41.157 24.4716 41.4383 24.754L41.511 24.8176L53.155 13.1255V12.8643L41.5016 1.16992L41.4289 1.23347Z" fill="url(#paint0_linear_64_761)"/>
<path fill-rule="evenodd" clip-rule="evenodd" d="M57.0292 17.0346L53.1455 13.1349V12.8619L57.0292 8.96216L57.1136 9.01393L61.7075 11.6357C63.0224 12.3794 63.0224 13.6079 61.7075 14.361L57.1136 16.9828L57.0292 17.0346Z" fill="url(#paint1_linear_64_761)"/>
<path fill-rule="evenodd" clip-rule="evenodd" d="M57.1137 16.983L53.1457 12.9985L41.429 24.7635C41.8579 25.2248 42.5774 25.2766 43.3814 24.8271L57.1137 16.983Z" fill="url(#paint2_linear_64_761)"/>
<path fill-rule="evenodd" clip-rule="evenodd" d="M57.1137 9.01413L43.3814 1.18179C42.5774 0.720511 41.8555 0.784055 41.429 1.24533L53.1457 12.9985L57.1137 9.01413Z" fill="url(#paint3_linear_64_761)"/>
<path opacity="0.2" fill-rule="evenodd" clip-rule="evenodd" d="M57.0294 16.8982L43.3906 24.6787C42.6289 25.1188 41.9492 25.0882 41.5109 24.6881L41.4382 24.7611L41.5109 24.8246C41.9492 25.2224 42.6289 25.2553 43.3906 24.8152L57.1231 16.9829L57.0294 16.8982Z" fill="black"/>
<path opacity="0.12" fill-rule="evenodd" clip-rule="evenodd" d="M61.7075 14.2247L57.0176 16.8982L57.102 16.983L61.6958 14.3612C62.3544 13.9846 62.6779 13.4904 62.6779 12.9985C62.638 13.4504 62.3029 13.8787 61.7075 14.2247Z" fill="black"/>
<path opacity="0.25" fill-rule="evenodd" clip-rule="evenodd" d="M43.3813 1.31825L61.7076 11.7724C62.3029 12.1089 62.6381 12.549 62.6896 12.9985C62.6896 12.5066 62.3662 12.0124 61.7076 11.6359L43.3813 1.18175C42.0664 0.426288 41 1.05702 41 2.56559V2.70209C41 1.19117 42.0664 0.572204 43.3813 1.31825Z" fill="white"/>
<defs>
<linearGradient id="paint0_linear_64_761" x1="52.1106" y1="2.34038" x2="33.4487" y2="7.29247" gradientUnits="userSpaceOnUse">
<stop stop-color="#00A0FF"/>
<stop offset="0.00657" stop-color="#00A1FF"/>
<stop offset="0.2601" stop-color="#00BEFF"/>
<stop offset="0.5122" stop-color="#00D2FF"/>
<stop offset="0.7604" stop-color="#00DFFF"/>
<stop offset="1" stop-color="#00E3FF"/>
</linearGradient>
<linearGradient id="paint1_linear_64_761" x1="63.4222" y1="12.9984" x2="40.6802" y2="12.9984" gradientUnits="userSpaceOnUse">
<stop stop-color="#FFE000"/>
<stop offset="0.4087" stop-color="#FFBD00"/>
<stop offset="0.7754" stop-color="#FFA500"/>
<stop offset="1" stop-color="#FF9C00"/>
</linearGradient>
<linearGradient id="paint2_linear_64_761" x1="54.9561" y1="15.1666" x2="39.8914" y2="40.4178" gradientUnits="userSpaceOnUse">
<stop stop-color="#FF3A44"/>
<stop offset="1" stop-color="#C31162"/>
</linearGradient>
<linearGradient id="paint3_linear_64_761" x1="38.4786" y1="-5.70752" x2="45.1996" y2="5.57007" gradientUnits="userSpaceOnUse">
<stop stop-color="#32A071"/>
<stop offset="0.0685" stop-color="#2DA771"/>
<stop offset="0.4762" stop-color="#15CF74"/>
<stop offset="0.8009" stop-color="#06E775"/>
<stop offset="1" stop-color="#00F076"/>
</linearGradient>
</defs>
</svg>
